<svg width="214.949219" height="29.895508" viewBox="0 0 214.949 29.8955" fill="none" xmlns="http://www.w3.org/2000/svg" xmlns:xlink="http://www.w3.org/1999/xlink">
	<desc>
			Created with Pixso.
	</desc>
	<defs/>
	<path id="Booksaw" d="M175.94 28.81Q175.91 28.79 175.85 28.79Q174.87 28.79 174.11 28.38Q174.04 28.35 173.98 28.31Q173.18 27.82 172.35 26.61Q171.53 25.39 170.46 23.04L159.79 0.13Q159.78 0.1 159.77 0.08Q159.7 0 159.53 0Q159.39 0 159.3 0.07Q159.27 0.09 159.24 0.13L149.63 23.26Q148.71 25.48 147.9 26.68Q147.1 27.87 146.21 28.33Q145.31 28.79 144.02 28.79Q143.93 28.79 143.87 28.83Q143.79 28.9 143.79 29.07Q143.79 29.23 143.87 29.29Q143.92 29.34 144.02 29.34Q144.89 29.34 146.27 29.25Q147.83 29.16 148.99 29.16Q150.27 29.16 152.02 29.25Q153.58 29.34 154.41 29.34Q154.51 29.34 154.56 29.29Q154.64 29.23 154.64 29.07Q154.64 28.9 154.56 28.83Q154.5 28.79 154.41 28.79Q152.07 28.79 150.96 28.19Q150.46 27.92 150.19 27.51Q149.86 26.99 149.86 26.26Q149.86 25.24 150.51 23.68L154.64 13.74L163.43 13.74L168.9 25.48Q169.41 26.62 169.41 27.27Q169.41 27.62 169.26 27.88Q169.06 28.24 168.58 28.44Q167.76 28.79 165.87 28.79Q165.81 28.79 165.77 28.82Q165.68 28.88 165.68 29.07Q165.68 29.25 165.76 29.31Q165.81 29.34 165.87 29.34Q166.6 29.34 168.07 29.25Q169.64 29.16 170.61 29.16Q171.43 29.16 173.18 29.25Q175.02 29.34 175.85 29.34Q175.91 29.34 175.95 29.31Q176.03 29.26 176.03 29.07Q176.03 28.87 175.94 28.81ZM35.1 28.53Q37.99 29.89 41.53 29.89Q44.11 29.89 46.48 29.17Q48.07 28.68 49.56 27.87Q51.74 26.68 53.39 24.98Q54.56 23.79 55.46 22.35Q56.49 20.73 57.04 18.95Q57.68 16.9 57.68 14.66Q57.68 12.93 57.3 11.29Q56.86 9.36 55.9 7.54Q55.16 6.12 54.14 4.94Q52.73 3.31 50.82 2.13Q50.43 1.89 50.04 1.68Q47.01 0.08 43.13 0.08Q42.32 0.08 41.51 0.16Q38.44 0.44 35.47 1.79Q33.72 2.59 32.26 3.75Q30.61 5.07 29.34 6.87Q28.99 7.37 28.68 7.91Q26.95 10.96 26.95 14.99Q26.95 17.71 27.77 20.16Q28.17 21.35 28.76 22.47Q29.65 24.15 30.91 25.49Q32.22 26.87 33.91 27.89Q34.49 28.24 35.1 28.53ZM69.42 28.53Q72.31 29.89 75.84 29.89Q78.43 29.89 80.79 29.17Q82.38 28.68 83.87 27.87Q86.05 26.68 87.71 24.98Q88.87 23.79 89.78 22.35Q90.81 20.73 91.36 18.95Q91.99 16.9 91.99 14.66Q91.99 12.93 91.62 11.29Q91.18 9.36 90.22 7.54Q89.47 6.12 88.45 4.94Q87.05 3.31 85.13 2.13Q84.75 1.89 84.35 1.68Q81.32 0.08 77.45 0.08Q76.63 0.08 75.82 0.16Q72.76 0.44 69.79 1.79Q68.04 2.59 66.58 3.75Q64.93 5.07 63.66 6.87Q63.3 7.37 63 7.91Q61.27 10.96 61.27 14.99Q61.27 17.71 62.09 20.16Q62.49 21.35 63.07 22.47Q63.97 24.15 65.23 25.49Q66.53 26.87 68.23 27.89Q68.81 28.24 69.42 28.53ZM129.58 9.04Q128.88 7.8 128.88 6.16Q128.88 4.57 129.52 3.31Q129.79 2.77 130.17 2.3Q130.37 2.05 130.6 1.84Q131.89 0.68 134.22 0.68Q136.49 0.68 137.97 1.77Q138.43 2.11 138.82 2.57Q139.76 3.67 140.21 4.94Q140.54 5.85 140.62 6.85Q140.63 6.9 140.67 6.94Q140.74 7.03 140.91 7.03Q141.08 7.03 141.14 6.94Q141.17 6.9 141.17 6.85L140.75 1.97Q140.75 1.86 140.72 1.76Q140.6 1.4 140.07 1.19Q137.35 0.08 134.82 0.08Q133.02 0.08 131.41 0.64Q131.09 0.76 130.77 0.89Q129.67 1.36 128.81 2.1Q128.2 2.63 127.7 3.31Q127.55 3.52 127.41 3.75Q126.53 5.22 126.53 7.22Q126.53 9.24 127.43 10.69Q128.33 12.14 129.59 13.1Q130.86 14.07 133.07 15.36Q135.33 16.69 136.63 17.68Q136.68 17.72 136.74 17.77Q137.98 18.73 138.86 20.16Q139.78 21.66 139.78 23.73Q139.78 26.13 138.59 27.45Q138.37 27.7 138.1 27.91Q137.74 28.2 137.35 28.43Q135.9 29.25 133.99 29.25Q131.72 29.25 130.08 28.23Q129.23 27.7 128.56 26.9Q127.86 26.08 127.36 25.16Q126.42 23.44 126.12 21.38Q126.1 21.31 126.06 21.27Q125.99 21.21 125.84 21.22Q125.7 21.23 125.64 21.31Q125.61 21.36 125.61 21.42L125.61 21.48L126.31 27.45Q126.35 27.82 126.42 28.02Q126.49 28.19 126.72 28.33Q128.47 29.21 129.91 29.54Q131.36 29.89 132.98 29.89Q136.01 29.89 138.1 28.86Q139.93 27.96 140.97 26.5Q141.12 26.28 141.26 26.05Q141.62 25.43 141.86 24.77Q142.31 23.53 142.31 22.12Q142.31 20.08 141.39 18.62Q141.38 18.6 141.37 18.58Q140.42 17.1 139.11 16.17Q137.81 15.22 135.42 13.8Q133.16 12.46 131.89 11.56Q131.57 11.33 131.27 11.07Q130.41 10.32 129.76 9.33Q129.66 9.19 129.58 9.04ZM20.94 15.77Q18.67 13.65 14.81 13.19Q17.51 12.18 18.96 10.39Q19.83 9.32 20.17 8.11Q20.41 7.28 20.41 6.39Q20.41 4.78 19.7 3.59Q19.13 2.65 18.11 1.97Q15.82 0.46 11.63 0.46Q10.93 0.46 10.01 0.5Q9.1 0.55 8.64 0.59Q7.26 0.72 5.97 0.72Q4.73 0.72 2.61 0.64L0.17 0.59Q0.17 0.59 0.16 0.59Q0.08 0.62 0.08 0.87Q0.08 1.11 0.16 1.14Q0.17 1.14 0.17 1.14Q2.15 1.14 2.79 1.77Q3.44 2.39 3.44 4.32L3.44 25.61Q3.44 26.95 3.14 27.62Q3.01 27.93 2.79 28.14Q2.53 28.4 2.15 28.54Q1.47 28.79 0.13 28.79Q0.1 28.79 0.08 28.8Q0 28.84 0 29.07Q0 29.29 0.08 29.33Q0.1 29.34 0.13 29.34Q1.69 29.34 2.61 29.3L5.97 29.25Q7.13 29.25 8.06 29.3Q9 29.34 9.65 29.39Q11.3 29.52 12.6 29.52Q15.58 29.52 18.02 28.4Q20.31 27.34 21.67 25.57Q21.76 25.46 21.84 25.34Q22.5 24.41 22.85 23.38Q23.22 22.26 23.22 21.02Q23.22 19.41 22.62 18.07Q22.05 16.8 20.94 15.77ZM123.92 28.8Q123.9 28.79 123.87 28.79Q122.45 28.79 121.53 28.35Q120.6 27.91 119.11 26.15Q117.62 24.38 114.62 20.1L107.81 10.9L113.01 5.6Q114.64 4 116.56 2.91Q117.07 2.62 117.61 2.36Q120.14 1.14 122.26 1.14Q122.29 1.14 122.31 1.13Q122.4 1.08 122.4 0.87Q122.4 0.65 122.31 0.6Q122.29 0.59 122.26 0.59L120.19 0.64Q118.17 0.72 116.28 0.72Q114.53 0.72 112.51 0.64L110.35 0.59Q110.32 0.59 110.3 0.6Q110.2 0.65 110.2 0.87Q110.2 1.08 110.29 1.13Q110.32 1.14 110.35 1.14Q111.68 1.14 112.41 1.6Q112.81 1.85 113 2.22Q113.15 2.52 113.15 2.89Q113.15 3.99 111.82 5.33L103.17 14.16L103.17 4.41Q103.17 3.03 103.42 2.36Q103.55 2.02 103.79 1.78Q104.02 1.55 104.34 1.42Q105.01 1.14 106.43 1.14Q106.46 1.14 106.49 1.13Q106.58 1.08 106.58 0.87Q106.58 0.65 106.49 0.6Q106.46 0.59 106.43 0.59L104.08 0.64Q101.97 0.72 100.59 0.72Q99.36 0.72 97.23 0.64L94.8 0.59Q94.77 0.59 94.75 0.6Q94.66 0.64 94.66 0.87Q94.66 1.09 94.75 1.13Q94.77 1.14 94.8 1.14Q96.22 1.14 96.89 1.4Q97.25 1.53 97.49 1.79Q97.69 2 97.81 2.3Q98.06 2.94 98.06 4.32L98.06 25.61Q98.06 26.99 97.81 27.67Q97.7 27.96 97.5 28.17Q97.25 28.44 96.86 28.57Q96.18 28.79 94.71 28.79Q94.7 28.79 94.69 28.79Q94.62 28.82 94.62 29.07Q94.62 29.31 94.69 29.34Q94.7 29.34 94.71 29.34Q96.27 29.34 97.19 29.3L100.59 29.25L104.04 29.3Q104.92 29.34 106.43 29.34Q106.5 29.34 106.54 29.31Q106.62 29.25 106.62 29.07Q106.62 28.88 106.53 28.82Q106.49 28.79 106.43 28.79Q104.96 28.79 104.3 28.57Q103.94 28.44 103.7 28.19Q103.51 27.98 103.4 27.69Q103.17 27.04 103.17 25.61L103.17 15.58L104.19 14.57L110.2 22.67Q110.58 23.17 110.87 23.57Q111.17 23.96 111.41 24.28Q113.34 26.9 114.09 27.82Q114.85 28.75 115.38 29.09L115.39 29.1Q115.91 29.43 116.65 29.43Q116.97 29.43 117.47 29.39Q117.98 29.34 118.72 29.34L123.87 29.34Q123.9 29.34 123.92 29.33Q124.01 29.29 124.01 29.07Q124.01 28.84 123.92 28.8ZM214.86 0.6Q214.84 0.59 214.81 0.59L212.88 0.64Q211.69 0.72 210.72 0.72Q209.52 0.72 207.96 0.64L206.12 0.59Q206.09 0.59 206.07 0.6Q205.98 0.64 205.98 0.87Q205.98 1.09 206.07 1.13Q206.09 1.14 206.12 1.14Q208.09 1.14 208.95 1.51Q209.46 1.74 209.67 2.12Q209.8 2.38 209.8 2.7Q209.8 3.35 209.48 4.04L200.59 25.89L194.66 13.06L198.2 4.32Q198.94 2.48 200 1.81Q201.05 1.14 202.62 1.14Q202.63 1.14 202.64 1.14Q202.71 1.11 202.71 0.87Q202.71 0.62 202.64 0.59Q202.63 0.59 202.62 0.59L200.65 0.64Q199.45 0.72 198.53 0.72Q197.69 0.72 196.79 0.64L195.49 0.59Q195.49 0.59 195.48 0.59Q195.4 0.62 195.4 0.87Q195.4 1.11 195.48 1.14Q195.48 1.14 195.49 1.14Q196.64 1.14 197.17 1.44Q197.36 1.55 197.48 1.71Q197.69 1.99 197.69 2.43Q197.69 3.07 197.29 4.04L194.11 11.87L190.43 3.95Q189.7 2.24 189.7 1.84Q189.7 1.6 189.81 1.46Q189.9 1.35 190.06 1.29Q190.43 1.14 191.35 1.14Q191.38 1.14 191.4 1.13Q191.48 1.09 191.48 0.87Q191.48 0.64 191.4 0.6Q191.37 0.59 191.35 0.59L190.06 0.64Q188.78 0.72 187.81 0.72Q187.16 0.72 185.88 0.64L183.9 0.59Q183.87 0.59 183.85 0.6Q183.76 0.65 183.76 0.87Q183.76 1.08 183.84 1.13Q183.87 1.14 183.9 1.14Q185.21 1.14 186.06 1.76Q186.14 1.82 186.22 1.88Q187.12 2.61 187.9 4.41L192.69 14.9L188.23 25.89L178.05 3.95Q177.69 3.07 177.69 2.61Q177.69 2.18 177.89 1.89Q178.07 1.62 178.42 1.47Q179.16 1.14 180.59 1.14Q180.62 1.14 180.64 1.13Q180.73 1.09 180.73 0.87Q180.73 0.64 180.64 0.6Q180.62 0.59 180.59 0.59L178.61 0.64Q176.77 0.72 175.44 0.72Q174.8 0.72 173.5 0.64L171.53 0.59Q171.5 0.59 171.48 0.6Q171.39 0.64 171.39 0.87Q171.39 1.09 171.48 1.13Q171.5 1.14 171.53 1.14Q172.82 1.14 173.68 1.75Q173.77 1.81 173.85 1.88Q174.75 2.61 175.53 4.41L186.89 29.3L186.89 29.3Q187.03 29.48 187.4 29.48Q187.83 29.48 187.89 29.32Q187.9 29.31 187.9 29.3L193.24 16.09L199.27 29.3L199.27 29.3Q199.4 29.48 199.77 29.48Q200.2 29.48 200.27 29.32Q200.27 29.31 200.28 29.3L210.4 4.32Q211.18 2.48 212.22 1.81Q213.25 1.14 214.81 1.14Q214.84 1.14 214.86 1.13Q214.94 1.09 214.94 0.87Q214.94 0.64 214.86 0.6ZM45.73 28.29Q44.47 28.75 43.04 28.75Q41.76 28.75 40.59 28.38Q39.04 27.89 37.69 26.77Q35.32 24.78 33.96 21.27Q32.61 17.75 32.61 13.28Q32.61 7.63 34.86 4.49Q35.78 3.2 37.03 2.43Q38.83 1.33 41.3 1.33Q43.36 1.33 45.09 2.08Q46.1 2.52 47 3.22Q47.08 3.28 47.17 3.35Q49.49 5.21 50.73 8.43Q52.02 11.76 52.02 16Q52.02 20.01 50.86 22.88Q49.71 25.76 47.67 27.25Q46.76 27.92 45.73 28.29ZM80.05 28.29Q78.79 28.75 77.36 28.75Q76.07 28.75 74.9 28.38Q73.35 27.89 72 26.77Q69.63 24.78 68.27 21.27Q66.93 17.75 66.93 13.28Q66.93 7.63 69.17 4.49Q70.1 3.2 71.34 2.43Q73.14 1.33 75.62 1.33Q77.67 1.33 79.4 2.08Q80.41 2.52 81.31 3.22Q81.4 3.28 81.48 3.35Q83.81 5.21 85.04 8.43Q86.33 11.76 86.33 16Q86.33 20.01 85.18 22.88Q84.03 25.76 81.99 27.25Q81.07 27.92 80.05 28.29ZM9.1 2.08Q9.61 1.47 10.93 1.47Q12.59 1.47 13.66 2.26Q13.98 2.51 14.25 2.83Q15.4 4.17 15.4 6.8Q15.4 9.61 14.11 11.41Q13.59 12.12 12.9 12.55Q11.86 13.19 10.43 13.19L8.6 13.15L8.6 4.41Q8.6 2.7 9.1 2.08ZM163.06 12.88L155.01 12.88L158.78 3.77L163.06 12.88ZM16.22 26.92Q14.71 28.37 11.81 28.37Q9.79 28.37 9.19 27.76Q8.6 27.13 8.6 25.61L8.6 14.53Q9.65 14.44 10.99 14.44Q13.81 14.44 15.46 15.83Q15.82 16.14 16.13 16.52Q17.84 18.58 17.84 22.12Q17.84 25.36 16.22 26.92Z" fill="#0A0A0A" fill-opacity="1.000000" fill-rule="evenodd"/>
</svg>
