<svg width="11.059998" height="12.997070" viewBox="0 0 11.06 12.9971" fill="none" xmlns="http://www.w3.org/2000/svg" xmlns:xlink="http://www.w3.org/1999/xlink">
	<desc>
			Created with Pixso.
	</desc>
	<defs/>
	<path id="Vector" d="M5.53 0C4.15 0 3.03 1.12 3.03 2.49L3.03 2.99L0.56 2.99L0.53 3.46L0.03 12.46L0 12.99L11.06 12.99L11.02 12.46L10.52 3.46L10.49 2.99L8.02 2.99L8.02 2.49C8.02 1.12 6.9 0 5.53 0ZM5.53 1C5.92 1 6.3 1.15 6.59 1.43C6.87 1.72 7.02 2.1 7.02 2.49L7.02 2.99L4.03 2.99L4.03 2.49C4.03 2.1 4.18 1.72 4.46 1.43C4.75 1.15 5.13 1 5.53 1ZM1.49 3.99L3.03 3.99L3.03 5.49L4.03 5.49L4.03 3.99L7.02 3.99L7.02 5.49L8.02 5.49L8.02 3.99L9.56 3.99L9.99 11.99L1.06 11.99L1.49 3.99Z" fill="#111111" fill-opacity="1.000000" fill-rule="nonzero"/>
</svg>
